<svg xmlns="http://www.w3.org/2000/svg" width="793.701" height="220.52" viewBox="0 0 210 58.346" xmlns:v="https://vecta.io/nano"><path d="M151.842 57.749c-7.923-1.06-14.164-6.7-15.949-14.413-.315-1.36-.343-2.461-.343-13.514s.028-12.154.343-13.514a18.76 18.76 0 0 1 14.097-14.097c1.36-.315 2.461-.343 13.514-.343s12.154.028 13.514.343c6.891 1.594 12.268 6.864 14.018 13.738.417 1.64.421 1.769.421 13.873s-.004 12.234-.421 13.873c-.817 3.209-2.632 6.414-4.939 8.72-2.401 2.401-5.272 4.031-8.709 4.945-1.429.38-1.894.395-13.237.428-6.466.019-12.005.001-12.311-.04zm14.462-9.793c2.001-.349 4.19-1.217 5.97-2.369.733-.474 1.403-.862 1.489-.862s.626.215 1.199.477c1.42.65 3.38.784 4.635.317.501-.187.931-.421.954-.521s-.825-.959-1.884-1.91l-1.927-1.729.479-.771c3.206-5.157 3.262-11.799.146-17.007-1.57-2.624-4.572-5.318-7.161-6.428l-.821-.352.089 1.141c.049.627.014 1.427-.078 1.778l-.167.637 1.342.898c4.572 3.058 6.654 8.522 5.311 13.934-.376 1.513-1.462 3.733-2 4.085-.399.262-.532.262-1.415 0a8.27 8.27 0 0 0-1.955-.289c-.942 0-2.469.451-2.469.729 0 .074.636.705 1.412 1.403l1.412 1.269-.44.363c-1.091.9-3.774 1.823-6.008 2.066s-5.464-.513-7.634-1.791c-1.341-.79-3.655-3.104-4.445-4.445-3.483-5.916-1.763-13.524 3.918-17.324l1.342-.898-.167-.637c-.092-.35-.127-1.15-.078-1.778l.089-1.141-.821.352c-1.512.648-3.472 2.053-4.872 3.495-6.185 6.363-6.144 16.363.093 22.685 3.849 3.902 9.053 5.564 14.462 4.621zm-.152-13.366c-.055-7.6-.063-7.747-.488-8.8-.796-1.975-2.293-3.422-3.872-3.743l-.602-.122.003 7.188c.002 5.694.06 7.43.277 8.351.517 2.192 1.584 3.692 3.144 4.418 1.743.812 1.601 1.484 1.537-7.294zm-.917-16.963c.627-.627.677-.757.677-1.781 0-1.03-.047-1.151-.697-1.802s-.771-.697-1.802-.697-1.151.047-1.802.697-.697.773-.697 1.793c0 .963.067 1.166.555 1.682.737.778 1.123.928 2.193.85.74-.054 1.015-.184 1.574-.742zM17.759 42.047c-1.147-.358-1.649-.743-2.122-1.628-.411-.769-.42-.916-.473-7.861-.038-4.88.011-7.321.157-7.861.855-3.173 6.448-3.726 8.228-.812l.556.911.056 6.97c.054 6.712.042 7.008-.334 8.014-.222.594-.63 1.245-.944 1.51-1.112.936-3.447 1.282-5.123.758zm4.147-.766c.523-.256.843-.601 1.18-1.276l.463-.926v-7.035-7.035l-.451-.787c-1.091-1.905-4.774-2.307-6.384-.697-1.004 1.004-1.059 1.502-.997 9.074.053 6.461.077 6.885.426 7.478.456.774 1.143 1.302 1.967 1.511.977.248 2.992.084 3.795-.308zm48.238.788c-.902-.327-1.828-1.328-2.164-2.339-.254-.764-.288-1.876-.241-7.897.053-6.852.064-7.025.47-7.784 1.127-2.109 3.873-2.722 5.816-1.299 1.048.768 2.155 3.834 1.385 3.834-.186 0-.303-.153-.303-.395 0-1.282-1.06-2.965-2.155-3.423-1.3-.543-3.165-.078-3.897.973-.752 1.078-.797 1.556-.797 8.403 0 8.032.081 8.419 1.944 9.274 1.455.668 3.508.248 4.294-.88.659-.945.797-1.716.797-4.446v-2.657h-1.481c-1.193 0-1.481-.054-1.481-.278s.319-.278 1.759-.278h1.759v2.836c0 3.405-.251 4.494-1.273 5.516s-2.928 1.384-4.43.84zm40.37-.142c-.9-.26-1.839-1.306-2.169-2.417-.422-1.422-.429-17.37-.008-17.37.243 0 .278 1.066.278 8.487v8.487l.425.816c1.244 2.39 5.268 2.102 6.229-.446.128-.34.196-3.452.196-8.932 0-7.353.035-8.411.278-8.411.411 0 .416 15.944.005 17.327-.614 2.067-2.89 3.137-5.234 2.46zm13.189.035c-1.303-.314-2.153-1.184-2.587-2.647-.35-1.179-.36-1.809-.03-1.809.16 0 .295.313.369.853.255 1.857 1.365 2.981 3.124 3.161 2.547.261 4.387-1.304 4.395-3.736.008-2.418-.788-3.612-4.024-6.038-2.619-1.963-3.367-2.79-3.745-4.14-.484-1.73.116-4.081 1.244-4.866 1.632-1.137 4.153-1.023 5.345.241.865.918 1.403 3.603.722 3.603-.19 0-.278-.191-.279-.602-.004-2.168-1.22-3.471-3.239-3.471-2.248 0-3.62 1.73-3.363 4.239.159 1.548.932 2.513 3.593 4.485 1.247.924 2.519 1.998 2.827 2.387 1.227 1.549 1.763 3.819 1.302 5.521-.295 1.092-1.466 2.33-2.552 2.7a6.1 6.1 0 0 1-3.103.119zm-95.618-9.936v-9.923l2.366.065c2.098.058 2.47.118 3.286.537 2.374 1.217 3.223 5.337 1.712 8.315-.974 1.921-1.99 2.411-5.004 2.412l-1.805.001v4.258c0 3.661-.039 4.258-.278 4.258s-.278-1.226-.278-9.923zm5.594.331c.491-.305.862-.781 1.296-1.662.552-1.121.607-1.388.605-2.904-.003-1.957-.473-3.262-1.496-4.161-.82-.72-1.668-.932-3.731-.933l-1.712-.001v5.111 5.11l2.175-.066c1.882-.057 2.268-.124 2.863-.494zm7.735-.312V22.14h3.795c3.25 0 3.795.04 3.795.278s-.514.278-3.517.278h-3.517v5.184 5.184h2.777c2.345 0 2.777.043 2.777.278s-.432.278-2.777.278h-2.777v3.888 3.888h3.517c3.003 0 3.517.041 3.517.278s-.545.278-3.795.278h-3.795zm12.589-.015c0-7.345.055-9.901.211-9.849.116.039 2.011 4.085 4.212 8.992l4.001 8.922.048-8.977c.042-7.809.084-8.977.324-8.977s.276 1.252.276 9.904c0 8.104-.045 9.904-.246 9.904-.146 0-1.852-3.637-4.212-8.981l-3.966-8.981-.048 8.981c-.042 7.812-.084 8.981-.324 8.981s-.276-1.254-.276-9.92zm27.029.015V22.14h3.795c3.25 0 3.795.04 3.795.278s-.514.278-3.517.278h-3.517v5.184 5.184h2.777c2.345 0 2.777.043 2.777.278s-.432.278-2.777.278h-2.777v3.888 3.888h3.517c3.003 0 3.517.041 3.517.278s-.545.278-3.795.278h-3.795zm12.589-.015c0-7.345.055-9.901.211-9.849.116.039 2.011 4.085 4.212 8.992l4.001 8.922.048-8.977c.042-7.809.084-8.977.324-8.977s.276 1.252.276 9.904c0 8.104-.045 9.904-.246 9.904-.146 0-1.852-3.637-4.212-8.981l-3.966-8.981-.048 8.981c-.042 7.812-.084 8.981-.324 8.981s-.276-1.254-.276-9.92z" fill="#f2f2f2"/></svg>